<?xml version="1.0" standalone="no"?>
<!DOCTYPE svg PUBLIC "-//W3C//DTD SVG 20010904//EN"
 "http://www.w3.org/TR/2001/REC-SVG-20010904/DTD/svg10.dtd">
<svg version="1.0" xmlns="http://www.w3.org/2000/svg"
 width="700.000000pt" height="700.000000pt" viewBox="0 0 700.000000 700.000000"
 preserveAspectRatio="xMidYMid meet">
<metadata>
Created by potrace 1.11, written by Peter Selinger 2001-2013
</metadata>
<g transform="translate(0.000000,700.000000) scale(0.100000,-0.100000)"
fill="#000000" stroke="none">
<path d="M3311 6923 c-12 -43 -24 -89 -27 -103 -3 -14 -13 -54 -24 -90 -10
-36 -39 -146 -65 -245 -26 -99 -53 -201 -61 -226 -8 -25 -16 -54 -18 -65 -5
-21 -43 -168 -237 -894 -71 -267 -134 -501 -139 -520 -12 -38 -99 -366 -105
-390 -2 -8 -24 -93 -50 -189 -26 -95 -48 -181 -50 -190 -2 -9 -18 -68 -35
-131 -17 -63 -42 -155 -55 -205 -13 -49 -31 -117 -40 -150 -50 -187 -69 -259
-90 -340 -13 -49 -40 -151 -60 -225 -20 -74 -38 -142 -40 -150 -2 -8 -27 -100
-55 -205 -28 -104 -53 -197 -55 -205 -2 -8 -11 -42 -20 -75 -9 -33 -27 -100
-40 -150 -25 -93 -86 -319 -112 -415 -8 -30 -16 -62 -18 -70 -2 -8 -30 -116
-63 -240 -49 -183 -93 -346 -128 -480 -2 -8 -19 -73 -38 -145 -20 -71 -49
-184 -67 -250 -17 -66 -35 -124 -39 -129 -6 -6 -563 -10 -941 -7 l-56 1 44
162 c23 90 52 197 63 238 11 41 40 149 64 240 25 91 83 309 130 485 46 176 97
365 111 420 69 257 88 329 119 445 18 69 77 289 131 490 134 504 138 520 134
524 -2 2 -58 18 -124 35 -66 18 -159 42 -206 55 l-87 23 -26 -96 c-34 -123
-167 -623 -217 -811 -21 -80 -59 -224 -85 -320 -25 -96 -59 -222 -74 -280 -24
-91 -83 -311 -135 -505 -9 -33 -25 -91 -35 -130 -10 -38 -26 -97 -35 -130 -9
-33 -18 -67 -20 -75 -2 -8 -13 -51 -25 -95 -11 -44 -38 -145 -59 -225 -89
-336 -223 -837 -231 -863 l-9 -27 953 0 953 0 18 63 c10 34 19 69 21 77 2 8
114 429 249 935 136 506 248 927 250 935 1 8 8 35 15 60 7 25 14 52 16 60 2 8
26 101 54 205 28 105 53 197 55 205 2 8 47 177 100 375 53 198 105 392 115
430 10 39 44 165 75 280 31 116 67 251 80 300 13 50 33 125 44 167 11 42 146
548 300 1125 154 576 287 1075 296 1108 9 33 25 96 36 140 12 44 25 84 30 89
9 10 2415 14 2425 4 3 -3 -98 -140 -224 -304 -126 -165 -336 -438 -466 -609
-130 -170 -248 -323 -261 -340 -12 -16 -136 -178 -275 -360 -139 -181 -263
-343 -275 -360 -13 -16 -48 -61 -77 -100 -172 -225 -461 -602 -516 -673 -35
-46 -62 -85 -59 -88 2 -3 491 -5 1086 -5 594 0 1081 -2 1081 -4 0 -5 -76 -110
-98 -135 -7 -8 -51 -67 -99 -130 -47 -63 -163 -216 -256 -340 -94 -124 -293
-387 -442 -585 -150 -198 -353 -466 -451 -596 -98 -130 -258 -341 -354 -469
-216 -287 -201 -267 -226 -298 -67 -86 -674 -894 -674 -897 0 -3 160 -127 246
-190 15 -11 32 -25 38 -30 6 -6 23 -18 37 -27 l26 -17 216 287 c119 158 312
413 428 567 300 396 542 716 779 1030 113 150 268 355 344 456 77 101 216 285
310 409 93 124 238 315 321 425 83 110 250 331 370 490 121 160 252 333 292
386 40 53 73 99 73 101 0 3 -488 4 -1085 4 -597 -1 -1085 0 -1085 1 0 2 34 47
75 100 74 97 121 157 242 316 35 45 66 87 71 92 4 6 81 107 172 225 90 118
272 357 405 530 133 173 277 362 321 420 43 58 81 107 84 110 3 3 181 235 395
515 214 281 393 512 397 513 4 2 8 8 8 13 0 5 -727 9 -1828 9 l-1829 0 -22
-77z"/>
</g>
</svg>
